<svg id="Слой_1" data-name="Слой 1" xmlns="http://www.w3.org/2000/svg" viewBox="0 0 150 190"><defs><style>.cls-1{fill-rule:evenodd;}</style></defs><title>Монтажная область 35</title><path class="cls-1" d="M119.37,146.36l-22.53.38V131.31l-7.7.06.19,15.5-22.49.38-.1-15.72-7.6.05.2,15.8-22.5.39-.1-16-8.08.06v-9.14l8,0-.12-18.84-7.9.05V95.12l7.85-.22-.06-9.46L47.51,70.83,58.56,85.44l.11,8.83L66.51,94l-.06-10.18,11.06-13,11,14.61.1,8,8.18-.23v-7l10.67-15.4,12.24,13.43,0,8.27,7.68-.22V103.2l-7.75.06L119.51,123l7.87,0v8.08l-7.92.06Zm-52.8-42.73-7.78.06L59,122.77l7.66,0Zm30.27-.21-8,.06.24,19.4,7.81,0Z"/></svg>