<svg id="Слой_1" data-name="Слой 1" xmlns="http://www.w3.org/2000/svg" viewBox="0 0 150 190"><defs><style>.cls-1{fill-rule:evenodd;}</style></defs><title>Монтажная область 76</title><path class="cls-1" d="M108.24,121.84c-10,0-15.32,8.19-14.91,16.06l-34.64.62-5.52-15.81,32.7.35,9.58-35.23c22,0,24.15,1.38,24.15,9.34l-16.86-.75-3.52,14.2,20.15.42c6.77,0,11.16,3.22,11.16,10,0,7.58.21,16.21.21,16.21l-7.36.13C123.31,129.66,118.26,121.84,108.24,121.84Zm-27.86-3.91-9.94-.09,5.79-22.19L69,95.47,63.77,115.8l-8.33-2.71,4.65-17.83-7.27-.17-4,15.84-10-3.23,3.36-12.87-7.27-.17-2.78,10.87-16.49-5.35,6.16-12.65,56,0,4-13.27,23,.25,2.73,7.78-18,.16Zm-39,7.67c14.76,0,15.13,22.73,1,22.73C25.62,148.33,26.85,125.6,41.33,125.6Zm.47,16.11c5.87,0,5.72-9.48-.43-9.48S34.82,141.71,41.8,141.71Zm66.49-16.11c14.76,0,15.13,22.73,1,22.73C92.58,148.33,93.81,125.6,108.29,125.6Zm.46,16.11c5.88,0,5.73-9.48-.42-9.48S101.78,141.71,108.75,141.71Z"/></svg>